<svg xmlns="http://www.w3.org/2000/svg" viewBox="0 0 800 800"><defs><style>.cls-1{fill:#7b1500;}</style></defs><g id="Official_Logo" data-name="Official Logo"><polygon class="cls-1" points="616.05 426.8 621.21 421.65 616.53 417.1 611.45 422.32 616.05 426.8"/><rect class="cls-1" x="612.64" y="394.89" width="7.29" height="7.29" transform="translate(-99.2 562) rotate(-45.76)"/><path class="cls-1" d="M627,363a8.56,8.56,0,0,0-8.55-8.55,8.44,8.44,0,0,0-4.48,1.29l11.74,11.74A8.49,8.49,0,0,0,627,363Z"/><polygon class="cls-1" points="615.17 370.41 610.82 374.88 616.04 379.97 620.33 375.57 615.17 370.41"/><polygon class="cls-1" points="628.06 391.67 632.19 387.43 627.03 382.27 622.84 386.58 628.06 391.67"/><path class="cls-1" d="M604.88,347.12a8.2,8.2,0,1,0-8.2-8.2A8.21,8.21,0,0,0,604.88,347.12Z"/><polygon class="cls-1" points="604.06 438.79 609.34 433.51 604.83 429.12 599.68 434.41 604.06 438.79"/><rect class="cls-1" x="600.94" y="406.91" width="7.29" height="7.29" transform="translate(-111.34 557.26) rotate(-45.76)"/><polygon class="cls-1" points="602.21 174.04 587.54 213 616.89 213 602.21 174.04"/><polygon class="cls-1" points="197.69 375.04 183.01 414 212.37 414 197.69 375.04"/><polygon class="cls-1" points="587.54 616 616.89 616 602.21 577.04 587.54 616"/><rect class="cls-1" x="600.62" y="383.18" width="7.29" height="7.29" transform="translate(-94.45 549.84) rotate(-45.76)"/><path class="cls-1" d="M573.69,376.26a8.47,8.47,0,0,0-5.25-1.83,8.53,8.53,0,0,0-6.72,13.81Z"/><polygon class="cls-1" points="564.31 399.05 569.24 403.98 574 399.09 569.07 394.29 564.31 399.05"/><path class="cls-1" d="M528.5,381.65a17.47,17.47,0,0,0,0,34.94c10.88,0,19.18-10.79,23.24-17.41C546.32,390.7,538.26,381.65,528.5,381.65Z"/><path class="cls-1" d="M560.67,415.18a8.52,8.52,0,0,0,13.39,7L562.2,410.34A8.51,8.51,0,0,0,560.67,415.18Z"/><path class="cls-1" d="M0,0V800H800V0ZM552.56,249,592.61,142.3a10.14,10.14,0,0,1,9.6-6.35,10,10,0,0,1,9.61,6.35l40,106.73a10.26,10.26,0,0,1-6,13,9.81,9.81,0,0,1-3.44.55,9.62,9.62,0,0,1-9.24-6.21L624.32,233h-44l-8.88,23.41a10.11,10.11,0,0,1-9.42,6.28,10.67,10.67,0,0,1-3.45-.58A10.33,10.33,0,0,1,552.56,249ZM361.78,357a10,10,0,0,1-10-10.09,9.78,9.78,0,0,1,10-9.91h77.37a9.89,9.89,0,0,1,10,9.91,10.17,10.17,0,0,1-10,10.09H410v97a9.85,9.85,0,0,1-10,10,10,10,0,0,1-10-10V357ZM351.54,236.06a9.45,9.45,0,0,1,13.23-1.27c8,6.52,21.75,14.13,34.61,14,9.06,0,17.22-2.72,22.65-6.7s7.79-8.52,7.79-13a10.31,10.31,0,0,0-1.63-5.8,17.38,17.38,0,0,0-5.43-5.56c-5.26-3.44-14.14-6.63-24.83-8.63h-.36a75.81,75.81,0,0,1-23.38-6.95c-6.88-3.26-12.86-7.73-16.85-14.07a27.72,27.72,0,0,1-4.17-14.83c0-10.87,6.16-20.28,14.5-26.44,8.52-6.16,19.57-9.6,31.35-9.6,17.39,0,30.26,8.52,39.5,14.5a9.33,9.33,0,0,1,2.54,12.87,9.16,9.16,0,0,1-12.87,2.72C419,161,410.07,155.6,399,155.6c-8.16,0-15.4,2.54-20.3,6.16s-6.88,7.61-6.88,11.42a8.77,8.77,0,0,0,1.27,5.07A17.31,17.31,0,0,0,378,183c4.71,3.27,12.86,6,22.65,8H401c9.24,2,17.76,4.14,25,7.58,7.43,3.62,14,8.32,18.12,15a29.35,29.35,0,0,1,4.35,15.4c0,11.59-6.53,21.56-15.59,28.08-8.88,6.52-20.65,10.33-33.52,10.33-19.57-.19-36.06-10-46.39-18.13A9.64,9.64,0,0,1,351.54,236.06ZM251,613a52.5,52.5,0,0,1-105,0V548.51a9.78,9.78,0,0,1,9.91-10,10,10,0,0,1,10.09,10V613a32.5,32.5,0,0,0,65,0V548.51a9.93,9.93,0,0,1,10.09-10,9.78,9.78,0,0,1,9.91,10ZM148,450.37l40-106.73a10.14,10.14,0,0,1,9.61-6.34,10,10,0,0,1,9.6,6.34l40.05,106.73a10.29,10.29,0,0,1-6,13.05,9.9,9.9,0,0,1-3.44.54,9.79,9.79,0,0,1-9.25-6.37L219.8,434h-44l-8.88,23.59a10.18,10.18,0,0,1-9.42,6.35,10.6,10.6,0,0,1-3.44-.53A10.27,10.27,0,0,1,148,450.37Zm29-220a48,48,0,0,0,32.62,13.05,45.56,45.56,0,0,0,29.18-10c4.16-3.08,10.87-2.36,14.49,2a10.7,10.7,0,0,1-1.81,14.5,67.78,67.78,0,0,1-41.86,14.13c-36.24,0-66.32-29.17-66.5-65.23.18-35.88,30.26-65,66.5-65.23a67.78,67.78,0,0,1,41.86,14.13,10.72,10.72,0,0,1,1.81,14.5c-3.62,4.53-10.33,5.25-14.49,2-8-6.52-17.94-10-29.18-10a48,48,0,0,0-32.62,13,44.72,44.72,0,0,0-13.22,31.53A44.07,44.07,0,0,0,177,230.35Zm277.34,322.9L409.58,659.07a5.3,5.3,0,0,1-.72,1.45c0,.18,0,.18-.18.18-.18.37-.73.73-.91,1.09a1.52,1.52,0,0,1-.36.55c-.36.36-.73.54-1.09.9l-.36.18a10.18,10.18,0,0,1-1.45.91c-.18,0-.18.06-.36.24-.55,0-.91.43-1.45.43h-.36c-.73,0-1.27.18-1.82.18s-1.26-.18-1.81-.18h-.36c-.36,0-1.09-.59-1.45-.59a.87.87,0,0,0-.18-.41h-.18a1.66,1.66,0,0,1-1.63-1h-.18c-.37,0-.73-.42-1.27-.79,0-.18-.18-.12-.18-.48a4.33,4.33,0,0,1-.91-1.06.16.16,0,0,1-.18-.16,6.37,6.37,0,0,0-.91-1.44L346.89,553.25a9.65,9.65,0,0,1,5.43-12.87,9.78,9.78,0,0,1,12.87,5.26l35.33,83.9,35.34-83.9a10,10,0,0,1,18.48,7.61ZM645.88,665.11a9.82,9.82,0,0,1-3.44.54,9.63,9.63,0,0,1-9.24-6.22L624.32,636h-44l-8.88,23.43a10.11,10.11,0,0,1-9.42,6.28,10.66,10.66,0,0,1-3.45-.57,10.31,10.31,0,0,1-6-13.07l40.05-106.73a10.14,10.14,0,0,1,9.6-6.35,10,10,0,0,1,9.61,6.34l40,106.73A10.28,10.28,0,0,1,645.88,665.11Zm33.28-238.44c-8.34,0-15.27-3.84-20.76-8.83a18,18,0,0,1-17.81,15.32,18.81,18.81,0,0,1-2-.11c0,.43.07.86.07,1.3a18,18,0,0,1-18,18,17.68,17.68,0,1,1-33.29.73,18,18,0,0,1-17-18,16.48,16.48,0,0,1,.12-2c-.43,0-.86.07-1.3.07a18.05,18.05,0,0,1-18-17.83c-5.76,5.86-13.34,10.69-22.7,10.69a26.95,26.95,0,0,1,0-53.9c7.68,0,15.1,3.5,21.94,10.22a18,18,0,0,1,18-17.44,16.36,16.36,0,0,1,2,.12c0-.43-.07-.87-.07-1.3a18.06,18.06,0,0,1,18-18h.17a17.69,17.69,0,1,1,32.8-.49A18.06,18.06,0,0,1,636.45,363c0,.44,0,.87-.06,1.3a16.24,16.24,0,0,1,2-.12,18.05,18.05,0,0,1,18,18c0,.55,0,1.1-.08,1.65,7.09-7.32,14.82-11.14,22.83-11.14a27,27,0,0,1,0,53.91Z"/><path class="cls-1" d="M646.93,382.25a8.52,8.52,0,0,0-13.48-7l11.89,11.89A8.5,8.5,0,0,0,646.93,382.25Z"/><polygon class="cls-1" points="623.15 410.31 627.91 414.94 633.07 409.79 628.24 405.08 623.15 410.31"/><path class="cls-1" d="M615.28,441a8.42,8.42,0,0,0,5.36,1.92A8.52,8.52,0,0,0,627.27,429Z"/><polygon class="cls-1" points="604.06 359.3 599.5 363.86 604.02 368.26 608.46 363.7 604.06 359.3"/><path class="cls-1" d="M679.16,382.25c-9.76,0-17.82,9-23.23,17.53,4.06,6.61,12.35,17.4,23.23,17.4a17.47,17.47,0,1,0,0-34.93Z"/><path class="cls-1" d="M604.14,450.47a8.2,8.2,0,1,0,8.2,8.2A8.21,8.21,0,0,0,604.14,450.47Z"/><polygon class="cls-1" points="639.77 403.08 643.8 399.05 638.89 394.14 634.85 398.29 639.77 403.08"/><path class="cls-1" d="M644.47,411.79a4.75,4.75,0,0,1-2.6,2.61l-7,7a8.52,8.52,0,0,0,12-12Z"/><path class="cls-1" d="M579.89,435.13a8.53,8.53,0,0,0,13.82,6.72l-12-12A8.53,8.53,0,0,0,579.89,435.13Z"/><rect class="cls-1" x="588.92" y="395.2" width="7.29" height="7.29" transform="translate(-106.59 545.1) rotate(-45.76)"/><polygon class="cls-1" points="598.04 422.5 592.81 417.41 587.81 422.55 592.97 427.7 598.04 422.5"/><polygon class="cls-1" points="592.79 370.57 587.64 375.72 592.32 380.28 597.41 375.06 592.79 370.57"/><polygon class="cls-1" points="586.02 410.8 580.79 405.71 575.95 410.68 581.11 415.84 586.02 410.8"/><polygon class="cls-1" points="585.7 387.08 580.93 382.43 575.78 387.59 580.62 392.3 585.7 387.08"/><path class="cls-1" d="M593.22,356.73a8.46,8.46,0,0,0-4.82-1.52,8.53,8.53,0,0,0-7,13.38Z"/></g></svg>